<svg width="46" height="52" viewBox="0 0 46 52" fill="none" xmlns="http://www.w3.org/2000/svg">
<path d="M16.2656 26.7891C12.4062 25.6797 9.59375 24.3203 7.82812 22.7109C6.07812 21.0859 5.20312 19.0859 5.20312 16.7109C5.20312 14.0234 6.27344 11.8047 8.41406 10.0547C10.5703 8.28906 13.3672 7.40625 16.8047 7.40625C19.1484 7.40625 21.2344 7.85937 23.0625 8.76562C24.9062 9.67188 26.3281 10.9219 27.3281 12.5156C28.3438 14.1094 28.8516 15.8516 28.8516 17.7422H24.3281C24.3281 15.6797 23.6719 14.0625 22.3594 12.8906C21.0469 11.7031 19.1953 11.1094 16.8047 11.1094C14.5859 11.1094 12.8516 11.6016 11.6016 12.5859C10.3672 13.5547 9.75 14.9062 9.75 16.6406C9.75 18.0312 10.3359 19.2109 11.5078 20.1797C12.6953 21.1328 14.7031 22.0078 17.5312 22.8047C20.375 23.6016 22.5938 24.4844 24.1875 25.4531C25.7969 26.4062 26.9844 27.5234 27.75 28.8047C28.5312 30.0859 28.9219 31.5938 28.9219 33.3281C28.9219 36.0938 27.8438 38.3125 25.6875 39.9844C23.5312 41.6406 20.6484 42.4688 17.0391 42.4688C14.6953 42.4688 12.5078 42.0234 10.4766 41.1328C8.44531 40.2266 6.875 38.9922 5.76562 37.4297C4.67188 35.8672 4.125 34.0938 4.125 32.1094H8.64844C8.64844 34.1719 9.40625 35.8047 10.9219 37.0078C12.4531 38.1953 14.4922 38.7891 17.0391 38.7891C19.4141 38.7891 21.2344 38.3047 22.5 37.3359C23.7656 36.3672 24.3984 35.0469 24.3984 33.375C24.3984 31.7031 23.8125 30.4141 22.6406 29.5078C21.4688 28.5859 19.3438 27.6797 16.2656 26.7891Z" fill="black"/>
<path d="M41.4297 31.1719C41.0078 34.7812 39.6719 37.5703 37.4219 39.5391C35.1875 41.4922 32.2109 42.4688 28.4922 42.4688C24.4609 42.4688 21.2266 41.0234 18.7891 38.1328C16.3672 35.2422 15.1562 31.375 15.1562 26.5312V23.25C15.1562 20.0781 15.7188 17.2891 16.8438 14.8828C17.9844 12.4766 19.5938 10.6328 21.6719 9.35156C23.75 8.05469 26.1562 7.40625 28.8906 7.40625C32.5156 7.40625 35.4219 8.42187 37.6094 10.4531C39.7969 12.4688 41.0703 15.2656 41.4297 18.8438H36.9062C36.5156 16.125 35.6641 14.1562 34.3516 12.9375C33.0547 11.7188 31.2344 11.1094 28.8906 11.1094C26.0156 11.1094 23.7578 12.1719 22.1172 14.2969C20.4922 16.4219 19.6797 19.4453 19.6797 23.3672V26.6719C19.6797 30.375 20.4531 33.3203 22 35.5078C23.5469 37.6953 25.7109 38.7891 28.4922 38.7891C30.9922 38.7891 32.9062 38.2266 34.2344 37.1016C35.5781 35.9609 36.4688 33.9844 36.9062 31.1719H41.4297Z" fill="black"/>
<rect x="1.375" y="4.375" width="43.25" height="41.25" stroke="black" stroke-width="2.75"/>
</svg>
